<svg width="300" height="60" viewBox="0 0 300 60" fill="none" xmlns="http://www.w3.org/2000/svg">
<path d="M187.846 59V52.7H190.6C191.284 52.7 191.884 52.832 192.4 53.096C192.916 53.36 193.318 53.726 193.606 54.194C193.894 54.662 194.038 55.214 194.038 55.85C194.038 56.48 193.894 57.032 193.606 57.506C193.318 57.974 192.916 58.34 192.4 58.604C191.884 58.868 191.284 59 190.6 59H187.846ZM189.016 58.01H190.546C191.02 58.01 191.428 57.92 191.77 57.74C192.118 57.56 192.385 57.308 192.571 56.984C192.763 56.66 192.859 56.282 192.859 55.85C192.859 55.412 192.763 55.034 192.571 54.716C192.385 54.392 192.118 54.14 191.77 53.96C191.428 53.78 191.02 53.69 190.546 53.69H189.016V58.01ZM199.989 59.09C199.497 59.09 199.044 59.009 198.63 58.847C198.216 58.685 197.856 58.46 197.55 58.172C197.244 57.878 197.007 57.536 196.839 57.146C196.671 56.75 196.587 56.318 196.587 55.85C196.587 55.382 196.671 54.953 196.839 54.563C197.007 54.167 197.244 53.825 197.55 53.537C197.856 53.243 198.216 53.015 198.63 52.853C199.044 52.691 199.494 52.61 199.98 52.61C200.472 52.61 200.922 52.691 201.33 52.853C201.744 53.015 202.104 53.243 202.41 53.537C202.716 53.825 202.953 54.167 203.121 54.563C203.289 54.953 203.373 55.382 203.373 55.85C203.373 56.318 203.289 56.75 203.121 57.146C202.953 57.542 202.716 57.884 202.41 58.172C202.104 58.46 201.744 58.685 201.33 58.847C200.922 59.009 200.475 59.09 199.989 59.09ZM199.98 58.064C200.298 58.064 200.592 58.01 200.862 57.902C201.132 57.794 201.366 57.641 201.564 57.443C201.762 57.239 201.915 57.005 202.023 56.741C202.137 56.471 202.194 56.174 202.194 55.85C202.194 55.526 202.137 55.232 202.023 54.968C201.915 54.698 201.762 54.464 201.564 54.266C201.366 54.062 201.132 53.906 200.862 53.798C200.592 53.69 200.298 53.636 199.98 53.636C199.662 53.636 199.368 53.69 199.098 53.798C198.834 53.906 198.6 54.062 198.396 54.266C198.198 54.464 198.042 54.698 197.928 54.968C197.82 55.232 197.766 55.526 197.766 55.85C197.766 56.168 197.82 56.462 197.928 56.732C198.042 57.002 198.198 57.239 198.396 57.443C198.594 57.641 198.828 57.794 199.098 57.902C199.368 58.01 199.662 58.064 199.98 58.064ZM207.558 59V53.69H205.47V52.7H210.816V53.69H208.728V59H207.558ZM215.34 59.09C214.848 59.09 214.377 59.021 213.927 58.883C213.477 58.739 213.12 58.556 212.856 58.334L213.261 57.425C213.513 57.623 213.825 57.788 214.197 57.92C214.569 58.052 214.95 58.118 215.34 58.118C215.67 58.118 215.937 58.082 216.141 58.01C216.345 57.938 216.495 57.842 216.591 57.722C216.687 57.596 216.735 57.455 216.735 57.299C216.735 57.107 216.666 56.954 216.528 56.84C216.39 56.72 216.21 56.627 215.988 56.561C215.772 56.489 215.529 56.423 215.259 56.363C214.995 56.303 214.728 56.234 214.458 56.156C214.194 56.072 213.951 55.967 213.729 55.841C213.513 55.709 213.336 55.535 213.198 55.319C213.06 55.103 212.991 54.827 212.991 54.491C212.991 54.149 213.081 53.837 213.261 53.555C213.447 53.267 213.726 53.039 214.098 52.871C214.476 52.697 214.953 52.61 215.529 52.61C215.907 52.61 216.282 52.658 216.654 52.754C217.026 52.85 217.35 52.988 217.626 53.168L217.257 54.077C216.975 53.909 216.684 53.786 216.384 53.708C216.084 53.624 215.796 53.582 215.52 53.582C215.196 53.582 214.932 53.621 214.728 53.699C214.53 53.777 214.383 53.879 214.287 54.005C214.197 54.131 214.152 54.275 214.152 54.437C214.152 54.629 214.218 54.785 214.35 54.905C214.488 55.019 214.665 55.109 214.881 55.175C215.103 55.241 215.349 55.307 215.619 55.373C215.889 55.433 216.156 55.502 216.42 55.58C216.69 55.658 216.933 55.76 217.149 55.886C217.371 56.012 217.548 56.183 217.68 56.399C217.818 56.615 217.887 56.888 217.887 57.218C217.887 57.554 217.794 57.866 217.608 58.154C217.428 58.436 217.149 58.664 216.771 58.838C216.393 59.006 215.916 59.09 215.34 59.09Z" fill="#F58233"/>
<path d="M98.762 59.09C98.282 59.09 97.835 59.012 97.421 58.856C97.013 58.694 96.656 58.469 96.35 58.181C96.05 57.887 95.816 57.542 95.648 57.146C95.48 56.75 95.396 56.318 95.396 55.85C95.396 55.382 95.48 54.95 95.648 54.554C95.816 54.158 96.053 53.816 96.359 53.528C96.665 53.234 97.022 53.009 97.43 52.853C97.838 52.691 98.285 52.61 98.771 52.61C99.287 52.61 99.758 52.7 100.184 52.88C100.61 53.054 100.97 53.315 101.264 53.663L100.508 54.374C100.28 54.128 100.025 53.945 99.743 53.825C99.461 53.699 99.155 53.636 98.825 53.636C98.495 53.636 98.192 53.69 97.916 53.798C97.646 53.906 97.409 54.059 97.205 54.257C97.007 54.455 96.851 54.689 96.737 54.959C96.629 55.229 96.575 55.526 96.575 55.85C96.575 56.174 96.629 56.471 96.737 56.741C96.851 57.011 97.007 57.245 97.205 57.443C97.409 57.641 97.646 57.794 97.916 57.902C98.192 58.01 98.495 58.064 98.825 58.064C99.155 58.064 99.461 58.004 99.743 57.884C100.025 57.758 100.28 57.569 100.508 57.317L101.264 58.037C100.97 58.379 100.61 58.64 100.184 58.82C99.758 59 99.284 59.09 98.762 59.09ZM106.96 59.09C106.468 59.09 106.015 59.009 105.601 58.847C105.187 58.685 104.827 58.46 104.521 58.172C104.215 57.878 103.978 57.536 103.81 57.146C103.642 56.75 103.558 56.318 103.558 55.85C103.558 55.382 103.642 54.953 103.81 54.563C103.978 54.167 104.215 53.825 104.521 53.537C104.827 53.243 105.187 53.015 105.601 52.853C106.015 52.691 106.465 52.61 106.951 52.61C107.443 52.61 107.893 52.691 108.301 52.853C108.715 53.015 109.075 53.243 109.381 53.537C109.687 53.825 109.924 54.167 110.092 54.563C110.26 54.953 110.344 55.382 110.344 55.85C110.344 56.318 110.26 56.75 110.092 57.146C109.924 57.542 109.687 57.884 109.381 58.172C109.075 58.46 108.715 58.685 108.301 58.847C107.893 59.009 107.446 59.09 106.96 59.09ZM106.951 58.064C107.269 58.064 107.563 58.01 107.833 57.902C108.103 57.794 108.337 57.641 108.535 57.443C108.733 57.239 108.886 57.005 108.994 56.741C109.108 56.471 109.165 56.174 109.165 55.85C109.165 55.526 109.108 55.232 108.994 54.968C108.886 54.698 108.733 54.464 108.535 54.266C108.337 54.062 108.103 53.906 107.833 53.798C107.563 53.69 107.269 53.636 106.951 53.636C106.633 53.636 106.339 53.69 106.069 53.798C105.805 53.906 105.571 54.062 105.367 54.266C105.169 54.464 105.013 54.698 104.899 54.968C104.791 55.232 104.737 55.526 104.737 55.85C104.737 56.168 104.791 56.462 104.899 56.732C105.013 57.002 105.169 57.239 105.367 57.443C105.565 57.641 105.799 57.794 106.069 57.902C106.339 58.01 106.633 58.064 106.951 58.064ZM113.339 59V52.7H114.302L118.253 57.551H117.776V52.7H118.937V59H117.974L114.023 54.149H114.5V59H113.339ZM122.381 59V52.7H123.344L127.295 57.551H126.818V52.7H127.979V59H127.016L123.065 54.149H123.542V59H122.381ZM132.502 55.319H135.634V56.282H132.502V55.319ZM132.592 58.019H136.147V59H131.422V52.7H136.021V53.681H132.592V58.019ZM142.122 59.09C141.642 59.09 141.195 59.012 140.781 58.856C140.373 58.694 140.016 58.469 139.71 58.181C139.41 57.887 139.176 57.542 139.008 57.146C138.84 56.75 138.756 56.318 138.756 55.85C138.756 55.382 138.84 54.95 139.008 54.554C139.176 54.158 139.413 53.816 139.719 53.528C140.025 53.234 140.382 53.009 140.79 52.853C141.198 52.691 141.645 52.61 142.131 52.61C142.647 52.61 143.118 52.7 143.544 52.88C143.97 53.054 144.33 53.315 144.624 53.663L143.868 54.374C143.64 54.128 143.385 53.945 143.103 53.825C142.821 53.699 142.515 53.636 142.185 53.636C141.855 53.636 141.552 53.69 141.276 53.798C141.006 53.906 140.769 54.059 140.565 54.257C140.367 54.455 140.211 54.689 140.097 54.959C139.989 55.229 139.935 55.526 139.935 55.85C139.935 56.174 139.989 56.471 140.097 56.741C140.211 57.011 140.367 57.245 140.565 57.443C140.769 57.641 141.006 57.794 141.276 57.902C141.552 58.01 141.855 58.064 142.185 58.064C142.515 58.064 142.821 58.004 143.103 57.884C143.385 57.758 143.64 57.569 143.868 57.317L144.624 58.037C144.33 58.379 143.97 58.64 143.544 58.82C143.118 59 142.644 59.09 142.122 59.09ZM148.708 59V53.69H146.62V52.7H151.966V53.69H149.878V59H148.708ZM154.599 59V52.7H155.769V59H154.599ZM159.228 59V52.7H160.191L164.142 57.551H163.665V52.7H164.826V59H163.863L159.912 54.149H160.389V59H159.228ZM171.212 59.09C170.72 59.09 170.267 59.012 169.853 58.856C169.445 58.694 169.088 58.469 168.782 58.181C168.476 57.887 168.239 57.542 168.071 57.146C167.903 56.75 167.819 56.318 167.819 55.85C167.819 55.382 167.903 54.95 168.071 54.554C168.239 54.158 168.476 53.816 168.782 53.528C169.094 53.234 169.457 53.009 169.871 52.853C170.285 52.691 170.738 52.61 171.23 52.61C171.764 52.61 172.244 52.697 172.67 52.871C173.102 53.045 173.465 53.3 173.759 53.636L173.021 54.356C172.775 54.11 172.508 53.93 172.22 53.816C171.938 53.696 171.626 53.636 171.284 53.636C170.954 53.636 170.648 53.69 170.366 53.798C170.084 53.906 169.841 54.059 169.637 54.257C169.433 54.455 169.274 54.689 169.16 54.959C169.052 55.229 168.998 55.526 168.998 55.85C168.998 56.168 169.052 56.462 169.16 56.732C169.274 57.002 169.433 57.239 169.637 57.443C169.841 57.641 170.081 57.794 170.357 57.902C170.633 58.01 170.939 58.064 171.275 58.064C171.587 58.064 171.887 58.016 172.175 57.92C172.469 57.818 172.748 57.65 173.012 57.416L173.678 58.289C173.348 58.553 172.964 58.754 172.526 58.892C172.094 59.024 171.656 59.09 171.212 59.09ZM172.571 58.136V55.778H173.678V58.289L172.571 58.136Z" fill="#F58233"/>
<path fill-rule="evenodd" clip-rule="evenodd" d="M272.587 28.621C272.587 25.4484 273.06 23.5731 274.962 21.5204C278.467 17.7367 286.26 17.8258 289.618 21.2C293.37 24.9697 293.293 31.7235 289.298 35.3927C284.015 40.2462 272.587 37.8016 272.587 28.621ZM264.578 27.6653C264.578 39.3084 273.108 45.6577 283.938 44.5042C287.615 44.1125 289.194 42.8647 290.787 41.5725C291.414 41.0645 292.293 41.5123 292.236 42.317C291.795 48.6031 288.991 51.9153 282.135 52.195C274.99 51.8882 276.265 51.8892 273.715 50.5702C274.352 50.2407 275.355 49.7204 266.382 53.7973C267.726 55.694 272.641 57.7473 275.581 58.3364C281.8 59.5828 291.803 59.5751 296.313 53.7973C298.477 51.0247 300 47.542 300 43.5936V11.0625L292.615 14.1126V16.0897V16.0897C292.612 16.1371 292.559 16.1629 292.52 16.1355C290.243 14.5237 288.176 11.7368 282.443 11.7368C276.902 11.7368 273.021 12.5416 269.111 16.4246C266.702 18.8165 264.578 22.9044 264.578 27.6653Z" fill="#505252"/>
<path fill-rule="evenodd" clip-rule="evenodd" d="M111.912 18.4562C117.359 18.4562 120.329 21.7139 121.461 26.7389H102.98C103.079 22.1269 107.316 18.4562 111.912 18.4562ZM94.9712 28.969C94.9712 34.951 97.103 39.1174 100.124 42.1166C105.279 47.2349 114.609 48.4224 120.939 45.6322C121.976 45.1754 126.389 42.749 126.389 41.3931C126.389 40.7875 124.045 38.1782 122.901 37.0719C122.602 36.7823 122.156 36.771 121.821 37.0183C119.643 38.6254 118.23 40.1188 113.452 40.1188C108.246 40.1188 104.173 37.4546 102.98 32.1545H128.853C128.853 26.1396 128.606 21.4979 124.466 17.2587C123.071 15.8292 121.754 14.5484 119.925 13.673C112.05 9.9032 100.655 12.3455 96.511 21.9601C95.8645 23.4598 94.9712 26.8519 94.9712 28.969Z" fill="#505252"/>
<path fill-rule="evenodd" clip-rule="evenodd" d="M242.377 40.06C228.611 40.06 231.787 18.7458 241.421 18.8982C245.1 18.7458 246.748 18.8739 249.498 22.1473C254.233 27.7858 251.822 40.06 242.377 40.06ZM224.631 29.2369C224.631 48.6138 250.078 53.4934 257.885 37.412C261.887 29.1663 259.522 18.5844 250.438 13.8475C240.467 8.64803 224.631 14.1182 224.631 29.2369Z" fill="#505252"/>
<path fill-rule="evenodd" clip-rule="evenodd" d="M176.221 30.8219C176.221 25.2335 180.149 20.2567 184.587 19.7958H185.918H187.25C191.687 20.2567 195.626 24.5336 195.626 29.5476C195.626 32.8372 195.109 35.7489 193.082 38.0659C190.183 41.3798 183.226 42.3885 179.214 38.2392C177.662 36.6339 176.221 33.8464 176.221 30.8219ZM185.77 48.0246C203.228 48.0246 208.49 28.014 198.943 18.1531C190.731 9.67086 174.303 11.4583 169.569 23.6232C168.928 25.2713 168.101 28.9286 168.331 30.9976C169.138 38.2483 171.842 43.5549 178.591 46.5294C180.184 47.2318 183.652 48.0246 185.77 48.0246Z" fill="#505252"/>
<path fill-rule="evenodd" clip-rule="evenodd" d="M143.821 46.0523H152.005C152.097 44.9197 153.143 42.9027 153.604 41.8013L165.068 14.2909C165.343 13.6322 164.859 12.9062 164.145 12.9062H158.979C158.605 12.9062 158.268 13.1038 158.111 13.4428C156.137 17.6966 148.874 36.2351 147.761 37.0687C147.391 35.445 143.8 27.2902 142.911 24.9875C142.164 23.0526 141.309 20.9766 140.494 19.0937C140.06 18.0896 139.701 17.0159 139.266 16.012C138.977 15.3452 138.567 14.4887 138.285 13.6714C138.133 13.2303 137.73 12.9062 137.264 12.9062H131.383C130.667 12.9062 130.183 13.6349 130.461 14.294L143.821 46.0523Z" fill="#505252"/>
<path fill-rule="evenodd" clip-rule="evenodd" d="M210.365 3.28416V47.0674H218.029V0.947611C218.029 0.426346 217.743 0.143972 217.218 0L210.365 3.28416Z" fill="#505252"/>
<rect y="5.53125" width="63" height="13" rx="6.5" fill="#F58233"/>
<rect y="46.0938" width="63" height="13" rx="6.5" fill="#F58233"/>
<rect y="25.8125" width="45" height="13" rx="6.5" fill="#F58233"/>
<circle cx="73.9561" cy="12.0312" r="6.5" fill="#F58233"/>
<circle cx="73.9561" cy="52.5938" r="6.5" fill="#F58233"/>
<circle cx="57.2046" cy="32.3125" r="6.5" fill="#F58233"/>
</svg>
